<svg id="Layer_1" data-name="Layer 1" xmlns="http://www.w3.org/2000/svg" viewBox="0 0 63.35 58.54"><defs><style>.cls-1{fill:#231f20;}.cls-2{fill:#fff;}</style></defs><title>logo-dark</title><path class="cls-1" d="M52.16,59.5H14.6A12.74,12.74,0,0,1,1.74,47V13.5A12.74,12.74,0,0,1,14.6,1H52.16A12.75,12.75,0,0,1,65,13.5V45.16a13.23,13.23,0,0,1-3.78,10.65A13.69,13.69,0,0,1,52.16,59.5Z" transform="translate(-1.74 -0.95)"/><path class="cls-2" d="M20,23.54V41c0,.7,0,1.26.07,1.7a4.66,4.66,0,0,0,.22,1.05,1.33,1.33,0,0,0,.36.6,2.78,2.78,0,0,0,.51.37,4.88,4.88,0,0,0,2.13.33v.85H12.8V45a9.51,9.51,0,0,0,1.32-.07,2.66,2.66,0,0,0,.82-.24,1.38,1.38,0,0,0,.5-.41,4.14,4.14,0,0,0,.34-.6A7.58,7.58,0,0,0,16.11,41V32.6c0-1.37,0-2.45-.07-3.24a7.9,7.9,0,0,0-.25-1.78,1.06,1.06,0,0,0-.52-.74,2.11,2.11,0,0,0-.86-.15A4.64,4.64,0,0,0,12.8,27l-.33-.85L19,23.54Zm-2-11.34a2.41,2.41,0,0,1,1.69.7,2.67,2.67,0,0,1,.51.76,2.4,2.4,0,0,1,0,1.87,2.72,2.72,0,0,1-.51.77,2.28,2.28,0,0,1-.76.52,2.41,2.41,0,0,1-.93.19,2.5,2.5,0,0,1-.94-.19,2.68,2.68,0,0,1-.77-.52,2.55,2.55,0,0,1-.52-.77,2.4,2.4,0,0,1,0-1.87,2.67,2.67,0,0,1,.51-.76,2.58,2.58,0,0,1,.77-.51A2.56,2.56,0,0,1,18.08,12.2Z" transform="translate(-1.74 -0.95)"/><path class="cls-2" d="M28.18,45.85V11.21h9.88c1.91,0,3.53,0,4.85.12a21.58,21.58,0,0,1,3.26.4,10.73,10.73,0,0,1,3.92,1.8A8.94,8.94,0,0,1,53,17.17,11,11,0,0,1,54,22a10.36,10.36,0,0,1-2,6.55,9.21,9.21,0,0,1-5.75,3.34l9.44,14H45L37.06,32.29V45.85Zm8.88-18.27h1.75a7.64,7.64,0,0,0,4.47-1,4,4,0,0,0,1.4-3.29,4.55,4.55,0,0,0-1.31-3.69c-.88-.74-2.35-1.11-4.42-1.11H37.06Z" transform="translate(-1.74 -0.95)"/></svg>